<mxfile host="app.diagrams.net" modified="2020-04-23T06:17:15.722Z" agent="5.0 (Windows)" etag="AZQ5plF1aCf3EdSgahq0" version="13.0.1" type="github">
  <diagram id="C5RBs43oDa-KdzZeNtuy" name="Page-1">
    <mxGraphModel dx="1422" dy="763" grid="1" gridSize="10" guides="1" tooltips="1" connect="1" arrows="1" fold="1" page="1" pageScale="1" pageWidth="827" pageHeight="1440" math="0" shadow="0">
      <root>
        <mxCell id="WIyWlLk6GJQsqaUBKTNV-0" />
        <mxCell id="WIyWlLk6GJQsqaUBKTNV-1" parent="WIyWlLk6GJQsqaUBKTNV-0" />
        <mxCell id="WIyWlLk6GJQsqaUBKTNV-2" value="" style="rounded=0;html=1;jettySize=auto;orthogonalLoop=1;fontSize=11;endArrow=block;endFill=0;endSize=8;strokeWidth=1;shadow=0;labelBackgroundColor=none;edgeStyle=orthogonalEdgeStyle;entryX=0.5;entryY=0;entryDx=0;entryDy=0;" parent="WIyWlLk6GJQsqaUBKTNV-1" source="WIyWlLk6GJQsqaUBKTNV-3" target="iTn3R1EVZ1-h4n3S3Dmo-0" edge="1">
          <mxGeometry relative="1" as="geometry">
            <mxPoint x="170" y="130" as="targetPoint" />
          </mxGeometry>
        </mxCell>
        <mxCell id="WIyWlLk6GJQsqaUBKTNV-3" value="&lt;div&gt;void start()&lt;/div&gt;&lt;div&gt;(Начало программы)&lt;br&gt;&lt;/div&gt;" style="rounded=1;whiteSpace=wrap;html=1;fontSize=12;glass=0;strokeWidth=1;shadow=0;" parent="WIyWlLk6GJQsqaUBKTNV-1" vertex="1">
          <mxGeometry x="120" y="40" width="120" height="50" as="geometry" />
        </mxCell>
        <mxCell id="iTn3R1EVZ1-h4n3S3Dmo-1" style="edgeStyle=orthogonalEdgeStyle;rounded=0;orthogonalLoop=1;jettySize=auto;html=1;entryX=0.5;entryY=0;entryDx=0;entryDy=0;" parent="WIyWlLk6GJQsqaUBKTNV-1" source="iTn3R1EVZ1-h4n3S3Dmo-0" target="iTn3R1EVZ1-h4n3S3Dmo-3" edge="1">
          <mxGeometry relative="1" as="geometry">
            <mxPoint x="210" y="200" as="targetPoint" />
          </mxGeometry>
        </mxCell>
        <mxCell id="iTn3R1EVZ1-h4n3S3Dmo-0" value="&lt;div&gt;Инициализировать датчики, моторы и все комплектующие,&lt;/div&gt;&lt;div&gt;калибруем датчик газа&lt;br&gt;&lt;/div&gt;" style="rounded=0;whiteSpace=wrap;html=1;" parent="WIyWlLk6GJQsqaUBKTNV-1" vertex="1">
          <mxGeometry x="110" y="120" width="140" height="60" as="geometry" />
        </mxCell>
        <mxCell id="iTn3R1EVZ1-h4n3S3Dmo-6" style="edgeStyle=orthogonalEdgeStyle;rounded=0;orthogonalLoop=1;jettySize=auto;html=1;exitX=0.5;exitY=1;exitDx=0;exitDy=0;" parent="WIyWlLk6GJQsqaUBKTNV-1" source="iTn3R1EVZ1-h4n3S3Dmo-2" target="iTn3R1EVZ1-h4n3S3Dmo-5" edge="1">
          <mxGeometry relative="1" as="geometry" />
        </mxCell>
        <mxCell id="iTn3R1EVZ1-h4n3S3Dmo-2" value="&lt;div&gt;void loop()&lt;/div&gt;&lt;div&gt;(Бесконечный цикл)&lt;br&gt;&lt;/div&gt;" style="shape=loopLimit;whiteSpace=wrap;html=1;" parent="WIyWlLk6GJQsqaUBKTNV-1" vertex="1">
          <mxGeometry x="100" y="330" width="160" height="40" as="geometry" />
        </mxCell>
        <mxCell id="iTn3R1EVZ1-h4n3S3Dmo-4" style="edgeStyle=orthogonalEdgeStyle;rounded=0;orthogonalLoop=1;jettySize=auto;html=1;entryX=0.5;entryY=0;entryDx=0;entryDy=0;" parent="WIyWlLk6GJQsqaUBKTNV-1" source="iTn3R1EVZ1-h4n3S3Dmo-3" target="iTn3R1EVZ1-h4n3S3Dmo-2" edge="1">
          <mxGeometry relative="1" as="geometry" />
        </mxCell>
        <mxCell id="iTn3R1EVZ1-h4n3S3Dmo-3" value="&lt;div&gt;Константа оптимального уровня углекислого газа co2Opt&lt;/div&gt;&lt;div&gt;Константа макс дельты уровня углекислого газа dCO2&lt;br&gt;&lt;/div&gt;" style="shape=parallelogram;perimeter=parallelogramPerimeter;whiteSpace=wrap;html=1;" parent="WIyWlLk6GJQsqaUBKTNV-1" vertex="1">
          <mxGeometry x="80" y="210" width="200" height="90" as="geometry" />
        </mxCell>
        <mxCell id="iTn3R1EVZ1-h4n3S3Dmo-14" style="edgeStyle=orthogonalEdgeStyle;rounded=0;orthogonalLoop=1;jettySize=auto;html=1;" parent="WIyWlLk6GJQsqaUBKTNV-1" source="iTn3R1EVZ1-h4n3S3Dmo-5" target="iTn3R1EVZ1-h4n3S3Dmo-15" edge="1">
          <mxGeometry relative="1" as="geometry">
            <mxPoint x="280" y="570" as="targetPoint" />
            <Array as="points">
              <mxPoint x="280" y="460" />
            </Array>
          </mxGeometry>
        </mxCell>
        <mxCell id="iTn3R1EVZ1-h4n3S3Dmo-56" style="edgeStyle=orthogonalEdgeStyle;rounded=0;jumpStyle=gap;orthogonalLoop=1;jettySize=auto;html=1;exitX=0;exitY=0.5;exitDx=0;exitDy=0;entryX=0.5;entryY=0;entryDx=0;entryDy=0;startArrow=none;startFill=0;strokeWidth=1;" parent="WIyWlLk6GJQsqaUBKTNV-1" source="iTn3R1EVZ1-h4n3S3Dmo-5" target="iTn3R1EVZ1-h4n3S3Dmo-53" edge="1">
          <mxGeometry relative="1" as="geometry" />
        </mxCell>
        <mxCell id="iTn3R1EVZ1-h4n3S3Dmo-5" value="Датчик уровня воды замкнут?" style="rhombus;whiteSpace=wrap;html=1;container=1;collapsible=0;" parent="WIyWlLk6GJQsqaUBKTNV-1" vertex="1">
          <mxGeometry x="100.5" y="400" width="159.5" height="120" as="geometry" />
        </mxCell>
        <mxCell id="iTn3R1EVZ1-h4n3S3Dmo-7" value="Нет" style="text;html=1;align=center;verticalAlign=middle;resizable=0;points=[];autosize=1;" parent="iTn3R1EVZ1-h4n3S3Dmo-5" vertex="1">
          <mxGeometry x="119.5" y="24" width="40" height="20" as="geometry" />
        </mxCell>
        <mxCell id="iTn3R1EVZ1-h4n3S3Dmo-8" value="Да" style="text;html=1;align=center;verticalAlign=middle;resizable=0;points=[];autosize=1;" parent="iTn3R1EVZ1-h4n3S3Dmo-5" vertex="1">
          <mxGeometry x="-0.5" y="24" width="30" height="20" as="geometry" />
        </mxCell>
        <mxCell id="iTn3R1EVZ1-h4n3S3Dmo-52" style="edgeStyle=orthogonalEdgeStyle;rounded=0;orthogonalLoop=1;jettySize=auto;html=1;startArrow=ERmany;startFill=0;strokeWidth=1;jumpStyle=gap;fixDash=0;" parent="WIyWlLk6GJQsqaUBKTNV-1" source="iTn3R1EVZ1-h4n3S3Dmo-15" edge="1">
          <mxGeometry relative="1" as="geometry">
            <mxPoint x="180" y="400" as="targetPoint" />
            <Array as="points">
              <mxPoint x="360" y="570" />
              <mxPoint x="360" y="380" />
            </Array>
          </mxGeometry>
        </mxCell>
        <mxCell id="iTn3R1EVZ1-h4n3S3Dmo-15" value="Перекачиваем воду в жилой бокс водяным насосом" style="rounded=0;whiteSpace=wrap;html=1;" parent="WIyWlLk6GJQsqaUBKTNV-1" vertex="1">
          <mxGeometry x="220" y="540" width="120" height="60" as="geometry" />
        </mxCell>
        <mxCell id="iTn3R1EVZ1-h4n3S3Dmo-35" style="edgeStyle=orthogonalEdgeStyle;rounded=0;orthogonalLoop=1;jettySize=auto;html=1;exitX=1;exitY=0.5;exitDx=0;exitDy=0;entryX=0.5;entryY=0;entryDx=0;entryDy=0;" parent="WIyWlLk6GJQsqaUBKTNV-1" source="iTn3R1EVZ1-h4n3S3Dmo-18" target="iTn3R1EVZ1-h4n3S3Dmo-25" edge="1">
          <mxGeometry relative="1" as="geometry">
            <Array as="points">
              <mxPoint x="270" y="750" />
            </Array>
          </mxGeometry>
        </mxCell>
        <mxCell id="iTn3R1EVZ1-h4n3S3Dmo-80" style="edgeStyle=orthogonalEdgeStyle;rounded=0;jumpStyle=gap;orthogonalLoop=1;jettySize=auto;html=1;startArrow=none;startFill=0;strokeWidth=1;" parent="WIyWlLk6GJQsqaUBKTNV-1" source="iTn3R1EVZ1-h4n3S3Dmo-18" edge="1">
          <mxGeometry relative="1" as="geometry">
            <mxPoint x="270" y="1310" as="targetPoint" />
            <Array as="points">
              <mxPoint x="40" y="750" />
            </Array>
          </mxGeometry>
        </mxCell>
        <mxCell id="iTn3R1EVZ1-h4n3S3Dmo-18" value="&lt;div&gt;Уровень углекислого газа меньше co2Opt - dCO2/2?&lt;/div&gt;" style="rhombus;whiteSpace=wrap;html=1;container=1;collapsible=0;" parent="WIyWlLk6GJQsqaUBKTNV-1" vertex="1">
          <mxGeometry x="80" y="680" width="190" height="140" as="geometry" />
        </mxCell>
        <mxCell id="iTn3R1EVZ1-h4n3S3Dmo-19" value="&lt;div&gt;Да&lt;/div&gt;" style="text;html=1;align=center;verticalAlign=middle;resizable=0;points=[];autosize=1;" parent="iTn3R1EVZ1-h4n3S3Dmo-18" vertex="1">
          <mxGeometry x="166.25" y="28" width="30" height="20" as="geometry" />
        </mxCell>
        <mxCell id="iTn3R1EVZ1-h4n3S3Dmo-20" value="Нет" style="text;html=1;align=center;verticalAlign=middle;resizable=0;points=[];autosize=1;" parent="iTn3R1EVZ1-h4n3S3Dmo-18" vertex="1">
          <mxGeometry x="-11.875" y="28" width="40" height="20" as="geometry" />
        </mxCell>
        <mxCell id="iTn3R1EVZ1-h4n3S3Dmo-64" style="edgeStyle=orthogonalEdgeStyle;rounded=0;jumpStyle=gap;orthogonalLoop=1;jettySize=auto;html=1;entryX=0.5;entryY=0;entryDx=0;entryDy=0;startArrow=none;startFill=0;strokeWidth=1;" parent="WIyWlLk6GJQsqaUBKTNV-1" source="iTn3R1EVZ1-h4n3S3Dmo-25" target="iTn3R1EVZ1-h4n3S3Dmo-63" edge="1">
          <mxGeometry relative="1" as="geometry" />
        </mxCell>
        <mxCell id="iTn3R1EVZ1-h4n3S3Dmo-25" value="&lt;div&gt;Включаем насос выкачивания воды из жилого бокса&lt;/div&gt;" style="rounded=0;whiteSpace=wrap;html=1;" parent="WIyWlLk6GJQsqaUBKTNV-1" vertex="1">
          <mxGeometry x="210" y="800" width="120" height="50" as="geometry" />
        </mxCell>
        <mxCell id="iTn3R1EVZ1-h4n3S3Dmo-61" style="edgeStyle=orthogonalEdgeStyle;rounded=0;jumpStyle=gap;orthogonalLoop=1;jettySize=auto;html=1;entryX=0.5;entryY=1;entryDx=0;entryDy=0;startArrow=none;startFill=0;strokeWidth=1;" parent="WIyWlLk6GJQsqaUBKTNV-1" source="iTn3R1EVZ1-h4n3S3Dmo-34" target="iTn3R1EVZ1-h4n3S3Dmo-46" edge="1">
          <mxGeometry relative="1" as="geometry" />
        </mxCell>
        <mxCell id="iTn3R1EVZ1-h4n3S3Dmo-62" style="edgeStyle=orthogonalEdgeStyle;rounded=0;jumpStyle=gap;orthogonalLoop=1;jettySize=auto;html=1;startArrow=none;startFill=0;strokeWidth=1;entryX=1;entryY=0.5;entryDx=0;entryDy=0;" parent="WIyWlLk6GJQsqaUBKTNV-1" source="iTn3R1EVZ1-h4n3S3Dmo-34" target="iTn3R1EVZ1-h4n3S3Dmo-48" edge="1">
          <mxGeometry relative="1" as="geometry">
            <mxPoint x="595" y="680" as="targetPoint" />
            <Array as="points">
              <mxPoint x="595" y="1020" />
              <mxPoint x="595" y="680" />
            </Array>
          </mxGeometry>
        </mxCell>
        <mxCell id="iTn3R1EVZ1-h4n3S3Dmo-34" value="Уровень углекислого газа больше co2Opt +dCO2/2?" style="rhombus;whiteSpace=wrap;html=1;container=1;collapsible=0;" parent="WIyWlLk6GJQsqaUBKTNV-1" vertex="1">
          <mxGeometry x="400" y="950" width="170" height="140" as="geometry" />
        </mxCell>
        <mxCell id="iTn3R1EVZ1-h4n3S3Dmo-44" value="&lt;div&gt;Да&lt;/div&gt;" style="text;html=1;align=center;verticalAlign=middle;resizable=0;points=[];autosize=1;" parent="iTn3R1EVZ1-h4n3S3Dmo-34" vertex="1">
          <mxGeometry x="105" width="30" height="20" as="geometry" />
        </mxCell>
        <mxCell id="iTn3R1EVZ1-h4n3S3Dmo-45" value="&lt;div&gt;Нет&lt;/div&gt;" style="text;html=1;align=center;verticalAlign=middle;resizable=0;points=[];autosize=1;" parent="iTn3R1EVZ1-h4n3S3Dmo-34" vertex="1">
          <mxGeometry x="155" y="80" width="40" height="20" as="geometry" />
        </mxCell>
        <mxCell id="iTn3R1EVZ1-h4n3S3Dmo-49" style="edgeStyle=orthogonalEdgeStyle;rounded=0;orthogonalLoop=1;jettySize=auto;html=1;entryX=0.5;entryY=1;entryDx=0;entryDy=0;" parent="WIyWlLk6GJQsqaUBKTNV-1" source="iTn3R1EVZ1-h4n3S3Dmo-46" target="iTn3R1EVZ1-h4n3S3Dmo-48" edge="1">
          <mxGeometry relative="1" as="geometry" />
        </mxCell>
        <mxCell id="iTn3R1EVZ1-h4n3S3Dmo-46" value="&lt;div&gt;Выкачиваем воздух из жилого бокса, пока уровень углекислого газа не достигнет&lt;/div&gt;&lt;div&gt;co2Opt - dCO2/2&lt;br&gt;&lt;/div&gt;" style="rounded=0;whiteSpace=wrap;html=1;" parent="WIyWlLk6GJQsqaUBKTNV-1" vertex="1">
          <mxGeometry x="425" y="760" width="120" height="100" as="geometry" />
        </mxCell>
        <mxCell id="iTn3R1EVZ1-h4n3S3Dmo-51" style="edgeStyle=orthogonalEdgeStyle;rounded=0;orthogonalLoop=1;jettySize=auto;html=1;entryX=1;entryY=0.25;entryDx=0;entryDy=0;" parent="WIyWlLk6GJQsqaUBKTNV-1" source="iTn3R1EVZ1-h4n3S3Dmo-48" target="iTn3R1EVZ1-h4n3S3Dmo-2" edge="1">
          <mxGeometry relative="1" as="geometry">
            <mxPoint x="420" y="340" as="targetPoint" />
            <Array as="points">
              <mxPoint x="485" y="340" />
            </Array>
          </mxGeometry>
        </mxCell>
        <mxCell id="iTn3R1EVZ1-h4n3S3Dmo-48" value="Возвращение в начало цикла void loop()" style="shape=loopLimit;whiteSpace=wrap;html=1;" parent="WIyWlLk6GJQsqaUBKTNV-1" vertex="1">
          <mxGeometry x="425" y="640" width="120" height="80" as="geometry" />
        </mxCell>
        <mxCell id="iTn3R1EVZ1-h4n3S3Dmo-57" style="edgeStyle=orthogonalEdgeStyle;rounded=0;jumpStyle=gap;orthogonalLoop=1;jettySize=auto;html=1;entryX=0.5;entryY=0;entryDx=0;entryDy=0;startArrow=none;startFill=0;strokeWidth=1;" parent="WIyWlLk6GJQsqaUBKTNV-1" source="iTn3R1EVZ1-h4n3S3Dmo-53" target="iTn3R1EVZ1-h4n3S3Dmo-18" edge="1">
          <mxGeometry relative="1" as="geometry" />
        </mxCell>
        <mxCell id="iTn3R1EVZ1-h4n3S3Dmo-53" value="&lt;div&gt;НЕ перекачиваем воду в жилой бокс&lt;/div&gt;&lt;div&gt;водяным насосом&lt;br&gt;&lt;/div&gt;" style="rounded=0;whiteSpace=wrap;html=1;" parent="WIyWlLk6GJQsqaUBKTNV-1" vertex="1">
          <mxGeometry x="20" y="540" width="120" height="60" as="geometry" />
        </mxCell>
        <mxCell id="iTn3R1EVZ1-h4n3S3Dmo-66" style="edgeStyle=orthogonalEdgeStyle;rounded=0;jumpStyle=gap;orthogonalLoop=1;jettySize=auto;html=1;startArrow=none;startFill=0;strokeWidth=1;entryX=1;entryY=0.4;entryDx=0;entryDy=0;entryPerimeter=0;" parent="WIyWlLk6GJQsqaUBKTNV-1" source="iTn3R1EVZ1-h4n3S3Dmo-63" target="iTn3R1EVZ1-h4n3S3Dmo-25" edge="1">
          <mxGeometry relative="1" as="geometry">
            <mxPoint x="350" y="820" as="targetPoint" />
            <Array as="points">
              <mxPoint x="350" y="925" />
              <mxPoint x="350" y="820" />
            </Array>
          </mxGeometry>
        </mxCell>
        <mxCell id="iTn3R1EVZ1-h4n3S3Dmo-82" style="edgeStyle=orthogonalEdgeStyle;rounded=0;jumpStyle=gap;orthogonalLoop=1;jettySize=auto;html=1;entryX=0.5;entryY=0;entryDx=0;entryDy=0;startArrow=none;startFill=0;strokeWidth=1;" parent="WIyWlLk6GJQsqaUBKTNV-1" source="iTn3R1EVZ1-h4n3S3Dmo-63" target="iTn3R1EVZ1-h4n3S3Dmo-81" edge="1">
          <mxGeometry relative="1" as="geometry" />
        </mxCell>
        <mxCell id="iTn3R1EVZ1-h4n3S3Dmo-63" value="Датчик расстояния показывает расстояние до дна? " style="rhombus;whiteSpace=wrap;html=1;container=1;collapsible=0;" parent="WIyWlLk6GJQsqaUBKTNV-1" vertex="1">
          <mxGeometry x="210" y="860" width="120" height="120" as="geometry" />
        </mxCell>
        <mxCell id="iTn3R1EVZ1-h4n3S3Dmo-67" value="Да" style="text;html=1;align=center;verticalAlign=middle;resizable=0;points=[];autosize=1;" parent="iTn3R1EVZ1-h4n3S3Dmo-63" vertex="1">
          <mxGeometry x="25" y="100" width="30" height="20" as="geometry" />
        </mxCell>
        <mxCell id="iTn3R1EVZ1-h4n3S3Dmo-65" value="Нет" style="text;html=1;align=center;verticalAlign=middle;resizable=0;points=[];autosize=1;" parent="WIyWlLk6GJQsqaUBKTNV-1" vertex="1">
          <mxGeometry x="305" y="870" width="40" height="20" as="geometry" />
        </mxCell>
        <mxCell id="iTn3R1EVZ1-h4n3S3Dmo-70" style="edgeStyle=orthogonalEdgeStyle;rounded=0;orthogonalLoop=1;jettySize=auto;html=1;" parent="WIyWlLk6GJQsqaUBKTNV-1" source="iTn3R1EVZ1-h4n3S3Dmo-72" target="iTn3R1EVZ1-h4n3S3Dmo-77" edge="1">
          <mxGeometry relative="1" as="geometry">
            <mxPoint x="369.98" y="1200" as="targetPoint" />
            <Array as="points">
              <mxPoint x="369.98" y="1090" />
            </Array>
          </mxGeometry>
        </mxCell>
        <mxCell id="iTn3R1EVZ1-h4n3S3Dmo-71" style="edgeStyle=orthogonalEdgeStyle;rounded=0;jumpStyle=gap;orthogonalLoop=1;jettySize=auto;html=1;exitX=0;exitY=0.5;exitDx=0;exitDy=0;entryX=0.5;entryY=0;entryDx=0;entryDy=0;startArrow=none;startFill=0;strokeWidth=1;" parent="WIyWlLk6GJQsqaUBKTNV-1" source="iTn3R1EVZ1-h4n3S3Dmo-72" target="iTn3R1EVZ1-h4n3S3Dmo-79" edge="1">
          <mxGeometry relative="1" as="geometry" />
        </mxCell>
        <mxCell id="iTn3R1EVZ1-h4n3S3Dmo-72" value="Датчик уровня воды замкнут?" style="rhombus;whiteSpace=wrap;html=1;container=1;collapsible=0;" parent="WIyWlLk6GJQsqaUBKTNV-1" vertex="1">
          <mxGeometry x="190.25000000000003" y="1050" width="159.5" height="120" as="geometry" />
        </mxCell>
        <mxCell id="iTn3R1EVZ1-h4n3S3Dmo-73" value="Нет" style="text;html=1;align=center;verticalAlign=middle;resizable=0;points=[];autosize=1;" parent="iTn3R1EVZ1-h4n3S3Dmo-72" vertex="1">
          <mxGeometry x="119.5" y="24" width="40" height="20" as="geometry" />
        </mxCell>
        <mxCell id="iTn3R1EVZ1-h4n3S3Dmo-74" value="Да" style="text;html=1;align=center;verticalAlign=middle;resizable=0;points=[];autosize=1;" parent="iTn3R1EVZ1-h4n3S3Dmo-72" vertex="1">
          <mxGeometry x="-0.5" y="24" width="30" height="20" as="geometry" />
        </mxCell>
        <mxCell id="iTn3R1EVZ1-h4n3S3Dmo-75" style="edgeStyle=orthogonalEdgeStyle;rounded=0;orthogonalLoop=1;jettySize=auto;html=1;startArrow=ERmany;startFill=0;strokeWidth=1;jumpStyle=gap;fixDash=0;entryX=0.5;entryY=0;entryDx=0;entryDy=0;" parent="WIyWlLk6GJQsqaUBKTNV-1" source="iTn3R1EVZ1-h4n3S3Dmo-77" target="iTn3R1EVZ1-h4n3S3Dmo-72" edge="1">
          <mxGeometry relative="1" as="geometry">
            <mxPoint x="269.98" y="1030" as="targetPoint" />
            <Array as="points">
              <mxPoint x="390" y="1040" />
              <mxPoint x="270" y="1040" />
            </Array>
          </mxGeometry>
        </mxCell>
        <mxCell id="iTn3R1EVZ1-h4n3S3Dmo-77" value="Перекачиваем воду в жилой бокс водяным насосом" style="rounded=0;whiteSpace=wrap;html=1;" parent="WIyWlLk6GJQsqaUBKTNV-1" vertex="1">
          <mxGeometry x="309.98" y="1170" width="120" height="60" as="geometry" />
        </mxCell>
        <mxCell id="iTn3R1EVZ1-h4n3S3Dmo-78" style="edgeStyle=orthogonalEdgeStyle;rounded=0;jumpStyle=gap;orthogonalLoop=1;jettySize=auto;html=1;startArrow=none;startFill=0;strokeWidth=1;entryX=0.5;entryY=1;entryDx=0;entryDy=0;" parent="WIyWlLk6GJQsqaUBKTNV-1" source="iTn3R1EVZ1-h4n3S3Dmo-79" target="iTn3R1EVZ1-h4n3S3Dmo-34" edge="1">
          <mxGeometry relative="1" as="geometry">
            <mxPoint x="530" y="1310" as="targetPoint" />
            <Array as="points">
              <mxPoint x="265" y="1200" />
              <mxPoint x="265" y="1310" />
              <mxPoint x="485" y="1310" />
            </Array>
          </mxGeometry>
        </mxCell>
        <mxCell id="iTn3R1EVZ1-h4n3S3Dmo-79" value="&lt;div&gt;НЕ перекачиваем воду в жилой бокс&lt;/div&gt;&lt;div&gt;водяным насосом&lt;br&gt;&lt;/div&gt;" style="rounded=0;whiteSpace=wrap;html=1;" parent="WIyWlLk6GJQsqaUBKTNV-1" vertex="1">
          <mxGeometry x="109.98000000000002" y="1170" width="120" height="60" as="geometry" />
        </mxCell>
        <mxCell id="iTn3R1EVZ1-h4n3S3Dmo-83" style="edgeStyle=orthogonalEdgeStyle;rounded=0;jumpStyle=gap;orthogonalLoop=1;jettySize=auto;html=1;startArrow=none;startFill=0;strokeWidth=1;" parent="WIyWlLk6GJQsqaUBKTNV-1" source="iTn3R1EVZ1-h4n3S3Dmo-81" edge="1">
          <mxGeometry relative="1" as="geometry">
            <mxPoint x="270" y="1050" as="targetPoint" />
          </mxGeometry>
        </mxCell>
        <mxCell id="iTn3R1EVZ1-h4n3S3Dmo-81" value="&lt;div&gt;Выключаем насос выкачивания воды из жилого бокса&lt;/div&gt;" style="rounded=0;whiteSpace=wrap;html=1;" parent="WIyWlLk6GJQsqaUBKTNV-1" vertex="1">
          <mxGeometry x="210" y="980" width="120" height="40" as="geometry" />
        </mxCell>
      </root>
    </mxGraphModel>
  </diagram>
</mxfile>
